<svg role="img" xmlns="http://www.w3.org/2000/svg" viewBox="0 0 24 24">
  <title>LinkedIn icon</title>
  <path fill="#FFFFFF" d="M20.447 20.452h-3.554v-5.569c0-1.327-.026-3.037-1.852-3.037
    -1.853 0-2.136 1.445-2.136 2.937v5.669H9.351V9h3.414v1.561h.049c.476
    -.899 1.636-1.848 3.367-1.848 3.595 0 4.257 2.365 4.257
    5.438v6.301zM5.337 7.433c-1.144 0-2.067-.926-2.067-2.067
    0-1.144.923-2.067 2.067-2.067 1.143 0 2.067.923 2.067
    2.067 0 1.141-.924 2.067-2.067 2.067zm1.777
    13.019H3.56V9h3.554v11.452zM22.225
    0H1.771C.792 0 0 .771 0 1.723v20.554C0
    23.229.792 24 1.771 24h20.451C23.2 24 24 23.229 24
    22.277V1.723C24 .771 23.2 0 22.222 0h.003z"/>
</svg>