<?xml version="1.0" standalone="no"?>
<!DOCTYPE svg PUBLIC "-//W3C//DTD SVG 20010904//EN"
 "http://www.w3.org/TR/2001/REC-SVG-20010904/DTD/svg10.dtd">
<svg version="1.0" xmlns="http://www.w3.org/2000/svg"
 width="1025.000000pt" height="1025.000000pt" viewBox="0 0 1025.000000 1025.000000"
 preserveAspectRatio="xMidYMid meet">
<metadata>
Created by potrace 1.11, written by Peter Selinger 2001-2013
</metadata>
<g transform="translate(0.000000,1025.000000) scale(0.100000,-0.100000)"
fill="#000000" stroke="none">
<path d="M5015 9202 c-44 -16 -134 -66 -555 -310 -52 -30 -122 -71 -155 -90
-33 -19 -73 -43 -90 -53 -16 -11 -43 -26 -60 -34 -16 -9 -46 -25 -65 -36 -123
-72 -623 -362 -862 -499 -215 -123 -228 -133 -281 -202 -73 -97 -70 -32 -71
-1288 -1 -619 3 -1143 7 -1165 20 -99 102 -214 183 -255 16 -8 69 -38 118 -67
49 -29 91 -53 95 -53 3 0 14 -7 24 -14 16 -13 10 -19 -75 -67 -51 -30 -102
-59 -113 -66 -11 -6 -34 -19 -50 -27 -75 -39 -143 -128 -171 -222 -16 -54 -17
-152 -18 -1173 -1 -809 2 -1130 11 -1171 23 -116 82 -194 196 -260 40 -22 79
-45 87 -50 8 -5 64 -37 124 -72 60 -35 127 -74 150 -87 23 -13 70 -40 106 -61
121 -70 444 -256 615 -355 94 -54 193 -112 220 -127 28 -16 57 -33 65 -38 49
-31 151 -90 155 -90 2 0 86 -48 186 -107 200 -116 245 -134 334 -135 93 0 134
16 328 128 99 57 182 104 185 104 3 0 13 6 21 14 9 8 40 27 69 42 29 16 61 34
70 39 39 23 180 104 212 123 19 11 148 84 285 164 138 79 340 196 450 260 110
63 261 150 335 193 171 98 190 112 234 179 67 102 65 47 63 1321 l-2 1150 -27
57 c-36 77 -97 140 -182 188 -120 68 -182 104 -205 120 -21 14 -17 18 125 99
149 86 196 124 241 195 53 83 52 44 50 1291 l-2 1160 -27 57 c-49 105 -119
161 -373 298 -33 18 -67 39 -76 46 -8 8 -18 14 -22 14 -3 0 -70 38 -149 84
-79 46 -291 169 -473 273 -181 105 -346 200 -365 211 -19 12 -46 27 -60 35
-14 7 -144 82 -290 167 -146 84 -283 159 -305 165 -63 19 -163 17 -220 -3z"/>
</g>
</svg>
